<?xml version="1.0" standalone="no"?><!DOCTYPE svg PUBLIC "-//W3C//DTD SVG 1.1//EN" "http://www.w3.org/Graphics/SVG/1.1/DTD/svg11.dtd"><svg t="1637893036266" class="icon" viewBox="0 0 1024 1024" version="1.1" xmlns="http://www.w3.org/2000/svg" p-id="7646" xmlns:xlink="http://www.w3.org/1999/xlink" width="200" height="200"><defs><style type="text/css"></style></defs><path d="M509.1328 519.8336m-450.816 0a450.816 450.816 0 1 0 901.632 0 450.816 450.816 0 1 0-901.632 0Z" fill="#8486F8" p-id="7647"></path><path d="M741.2224 445.9008c-2.1504-118.1184-98.5088-213.248-217.1904-213.248-116.3264 0-211.3024 91.4432-217.0368 206.336-75.3664 13.6192-132.5568 79.5136-132.5568 158.8224 0 89.1392 72.2944 161.4336 161.4336 161.4336h350.5152c89.1392 0 161.4336-72.2944 161.4336-161.4336 0-69.9904-44.4416-129.4848-106.5984-151.9104z m-134.9632 86.1184l-127.5904 77.9776c-9.6768 5.888-22.0672-1.0752-22.0672-12.3904V442.9312c0-11.264 12.3392-18.2272 21.9648-12.4416l127.5904 76.7488c9.3696 5.5808 9.4208 19.0976 0.1024 24.7808z" fill="#FFFFFF" p-id="7648"></path></svg>