<?xml version="1.0" standalone="no"?><!DOCTYPE svg PUBLIC "-//W3C//DTD SVG 1.1//EN" "http://www.w3.org/Graphics/SVG/1.1/DTD/svg11.dtd"><svg t="1637893046954" class="icon" viewBox="0 0 1024 1024" version="1.1" xmlns="http://www.w3.org/2000/svg" p-id="7798" xmlns:xlink="http://www.w3.org/1999/xlink" width="200" height="200"><defs><style type="text/css"></style></defs><path d="M504.32 509.5936m-450.816 0a450.816 450.816 0 1 0 901.632 0 450.816 450.816 0 1 0-901.632 0Z" fill="#FF5C64" p-id="7799"></path><path d="M756.3264 230.4512s-0.0512 0 0 0c-4.0448-27.904-21.8112-34.0992-47.2576-34.7648-137.9328-3.6864-245.6576 51.3024-325.9904 163.2768-12.2368 17.1008-30.2592 32.5632-49.0496 41.984-60.9792 30.5152-106.5472 75.3664-135.8848 136.3968-3.6864 7.68-2.6112 21.6064 2.2528 28.2112 3.5328 4.8128 17.664 4.864 25.856 2.6624 24.064-6.4 47.2576-16.5888 71.5264-21.9136 8.5504-1.8944 21.1456 3.84 28.672 9.984 40.192 32.9728 75.4688 74.0352 119.8592 99.2768 56.2176 31.9488 68.7104 72.0896 52.8896 129.5872-2.4064 8.8576 1.9456 25.6 8.448 29.2352 6.7584 3.7376 22.1184-1.1776 29.8496-7.2704 50.0736-39.3728 83.6608-90.88 97.9456-152.576 6.8608-29.7472 21.4528-51.5584 40.8576-73.7792 37.7344-43.264 62.3104-82.3808 75.9808-130.6112l0.2048-0.2048c32.5632-95.1296 3.84-219.4944 3.84-219.4944z m-179.4048 264.8064c-42.6496 5.0688-77.0048-22.8352-81.8176-66.5088-4.6592-41.9328 23.7568-79.5136 64.4608-85.248 40.5504-5.7344 80.8448 26.0096 85.8112 67.5328 5.12 42.752-24.3712 79.0016-68.4544 84.224z" fill="#FFFFFF" p-id="7800"></path><path d="M404.8896 727.9104c16.9472-20.992 7.0656-62.2592-16.384-81.2032-0.1024-0.0512-0.2048-0.1024-0.256-0.2048-0.1024-0.0512-0.1536-0.1536-0.256-0.2048-23.5008-18.9952-65.8944-19.9168-82.8416 1.024-18.5856 22.9888-38.0416 79.616-49.2544 122.1632-6.0416 22.9376 19.3536 43.3152 40.448 32.4608 39.5264-20.3264 90.88-52.1216 108.544-74.0352z" fill="#FFFFFF" p-id="7801"></path></svg>