<?xml version="1.0" standalone="no"?><!DOCTYPE svg PUBLIC "-//W3C//DTD SVG 1.1//EN" "http://www.w3.org/Graphics/SVG/1.1/DTD/svg11.dtd"><svg t="1637893008379" class="icon" viewBox="0 0 1024 1024" version="1.1" xmlns="http://www.w3.org/2000/svg" p-id="7343" xmlns:xlink="http://www.w3.org/1999/xlink" width="200" height="200"><defs><style type="text/css"></style></defs><path d="M515.7888 511.3856m-450.816 0a450.816 450.816 0 1 0 901.632 0 450.816 450.816 0 1 0-901.632 0Z" fill="#C65EDB" p-id="7344"></path><path d="M804.7104 729.856H713.216c62.7712-56.576 102.2976-138.496 102.2976-229.632 0-175.5136-146.3296-316.8768-323.6352-308.6848-160.256 7.3728-289.536 138.9056-294.2976 299.264-5.0176 169.2672 126.1056 309.0432 291.9936 318.0032h0.256a299.93472 299.93472 0 0 0 33.3824 0h281.5488c5.9904 0 10.8032-4.864 10.8032-10.8032v-57.2928a10.89536 10.89536 0 0 0-10.8544-10.8544zM338.944 572.3648c-41.5232 0-75.2128-33.6896-75.2128-75.2128s33.6896-75.2128 75.2128-75.2128 75.2128 33.6896 75.2128 75.2128-33.6384 75.2128-75.2128 75.2128z m167.5264 167.5264c-41.5232 0-75.2128-33.6896-75.2128-75.2128s33.6896-75.2128 75.2128-75.2128 75.2128 33.6896 75.2128 75.2128-33.6384 75.2128-75.2128 75.2128zM448.5632 494.9504c0-32 25.9072-57.9072 57.9072-57.9072 32 0 57.9072 25.9072 57.9072 57.9072 0 32-25.9072 57.9072-57.9072 57.9072-31.9488 0-57.9072-25.9584-57.9072-57.9072z m57.9072-90.0608c-41.5232 0-75.2128-33.6896-75.2128-75.2128S464.9472 254.464 506.4704 254.464s75.2128 33.6896 75.2128 75.2128-33.6384 75.2128-75.2128 75.2128z m92.3136 92.2624c0-41.5232 33.6896-75.2128 75.2128-75.2128s75.2128 33.6896 75.2128 75.2128-33.6896 75.2128-75.2128 75.2128-75.2128-33.6384-75.2128-75.2128z" fill="#FFFFFF" p-id="7345"></path></svg>